<svg width="160" height="46" viewBox="0 0 160 46" fill="none" xmlns="http://www.w3.org/2000/svg">
<path d="M147.35 32.7772C147.327 32.7112 147.272 32.6796 147.186 32.6796H145.956C145.876 32.6796 145.824 32.7112 145.801 32.7772L143.664 37.7899C143.621 37.8849 143.656 37.9324 143.771 37.9324H144.868C144.948 37.9324 145 37.9008 145.023 37.8348L145.352 37.0169H147.799L148.127 37.8348C148.15 37.9008 148.199 37.9324 148.274 37.9324H149.388C149.492 37.9324 149.526 37.8849 149.495 37.7899L147.35 32.7772ZM145.786 35.9431L146.564 34.0066H146.59L147.367 35.9431H145.786ZM119.526 32.7983V33.6848C119.526 33.7639 119.483 33.8061 119.396 33.8061H117.913V37.8137C117.913 37.8928 117.87 37.935 117.784 37.935H116.727C116.641 37.935 116.598 37.8955 116.598 37.8137V33.8061H115.124C115.031 33.8061 114.985 33.7666 114.985 33.6848V32.7983C114.985 32.7192 115.031 32.6769 115.124 32.6769H119.399C119.485 32.6769 119.529 32.7165 119.529 32.7983H119.526ZM110.143 32.7983V37.8111C110.143 37.8902 110.097 37.9324 110.004 37.9324H108.948C108.861 37.9324 108.818 37.8928 108.818 37.8111V32.7983C108.818 32.7192 108.861 32.6769 108.948 32.6769H110.004C110.097 32.6769 110.143 32.7165 110.143 32.7983ZM110.756 25.142V29.139C110.756 29.445 110.485 29.6957 110.148 29.6957H107.531C103.892 29.6957 100.889 28.6456 98.606 26.5746C96.3199 24.5009 95.1625 21.8468 95.1625 18.6887C95.1625 15.5307 96.3084 12.9663 98.5714 10.8926C100.834 8.81891 103.783 7.76887 107.338 7.76887H110.117C110.451 7.76887 110.724 8.01687 110.724 8.32555V12.3226C110.724 12.6286 110.454 12.8792 110.117 12.8792H107.5C105.476 12.8792 103.909 13.4201 102.714 14.5334C101.517 15.6494 100.932 17.0082 100.932 18.6887C100.932 20.3693 101.517 21.7914 102.714 22.9206C103.909 24.0418 105.484 24.588 107.531 24.588H110.148C110.482 24.588 110.756 24.836 110.756 25.1446V25.142ZM129.133 32.7983V35.8007C129.133 36.5104 128.923 37.0591 128.503 37.447C128.082 37.8348 127.489 38.0274 126.726 38.0274C125.963 38.0274 125.37 37.8348 124.953 37.447C124.535 37.0591 124.325 36.5104 124.325 35.8007V32.7983C124.325 32.7192 124.368 32.6769 124.455 32.6769H125.511C125.604 32.6769 125.65 32.7165 125.65 32.7983V35.7163C125.65 36.112 125.739 36.4022 125.915 36.5869C126.093 36.7716 126.361 36.8639 126.721 36.8639C127.081 36.8639 127.351 36.7716 127.533 36.5869C127.714 36.4022 127.803 36.112 127.803 35.7163V32.7983C127.803 32.7192 127.846 32.6769 127.933 32.6769H128.989C129.082 32.6769 129.128 32.7165 129.128 32.7983H129.133ZM117.516 29.6983H112.993C112.659 29.6983 112.385 29.4503 112.385 29.1416V8.32555C112.385 8.01951 112.656 7.76887 112.993 7.76887H117.516C117.85 7.76887 118.124 8.01687 118.124 8.32555V29.1416C118.124 29.4477 117.853 29.6983 117.516 29.6983ZM138.018 36.0566C138.324 35.9115 138.56 35.7031 138.724 35.4313C138.888 35.1596 138.968 34.8456 138.968 34.4894C138.968 33.9249 138.773 33.4816 138.378 33.1624C137.984 32.8432 137.437 32.6822 136.731 32.6822H134.489C134.402 32.6822 134.359 32.7218 134.359 32.8036V37.8163C134.359 37.8955 134.402 37.9377 134.489 37.9377H135.545C135.637 37.9377 135.683 37.8981 135.683 37.8163V36.3231H136.003C136.446 36.3231 136.789 36.4365 137.031 36.6608C137.273 36.885 137.451 37.2728 137.566 37.8242C137.584 37.8981 137.633 37.9377 137.713 37.9377H138.899C138.997 37.9377 139.038 37.8928 139.023 37.8031C138.882 36.9879 138.545 36.4075 138.015 36.0619L138.018 36.0566ZM136.7 35.186H135.683V33.7982H136.7C137.304 33.7982 137.61 34.0277 137.61 34.4894C137.61 34.9511 137.307 35.186 136.7 35.186ZM126.623 12.8792V16.3855H133.383C133.717 16.3855 133.99 16.6335 133.99 16.9422V20.7915C133.99 21.0975 133.72 21.3481 133.383 21.3481H126.623V29.1416C126.623 29.4477 126.352 29.6983 126.015 29.6983H121.492C121.158 29.6983 120.885 29.4503 120.885 29.1416V8.32555C120.885 8.01951 121.155 7.76887 121.492 7.76887H133.803C134.137 7.76887 134.411 8.01687 134.411 8.32555V12.3226C134.411 12.6286 134.14 12.8792 133.803 12.8792H126.623ZM149.627 8.32555V12.3226C149.627 12.6286 149.356 12.8792 149.02 12.8792H141.839V16.3855H148.599C148.933 16.3855 149.207 16.6335 149.207 16.9422V20.7915C149.207 21.0975 148.936 21.3481 148.599 21.3481H141.839V24.588H149.02C149.353 24.588 149.627 24.836 149.627 25.1446V29.1416C149.627 29.4477 149.356 29.6983 149.02 29.6983H136.708C136.374 29.6983 136.101 29.4503 136.101 29.1416V8.32555C136.101 8.01951 136.372 7.76887 136.708 7.76887H149.02C149.353 7.76887 149.627 8.01687 149.627 8.32555ZM103.774 36.9404V37.8111C103.774 37.8902 103.731 37.9324 103.644 37.9324H99.8037C99.7173 37.9324 99.6741 37.8928 99.6741 37.8111V32.7983C99.6741 32.7192 99.7173 32.6769 99.8037 32.6769H103.613C103.699 32.6769 103.742 32.7165 103.742 32.7983V33.6689C103.742 33.7534 103.699 33.7956 103.613 33.7956H101.001V34.7559H103.04C103.126 34.7559 103.169 34.7981 103.169 34.8825V35.7242C103.169 35.8086 103.126 35.8508 103.04 35.8508H101.001V36.8111H103.647C103.734 36.8111 103.777 36.8534 103.777 36.9378L103.774 36.9404ZM148.064 0.590088H11.0948C4.99394 0.590088 0.0332031 5.13586 0.0332031 10.7264V34.9538C0.0332031 40.5417 4.99394 45.0901 11.0948 45.0901H148.064C154.162 45.0901 159.125 40.5443 159.125 34.9538V10.7264C159.125 5.1385 154.165 0.590088 148.064 0.590088ZM156.626 34.9511C156.626 39.2779 152.785 42.7974 148.064 42.7974H11.0948C6.37305 42.7974 2.53229 39.2779 2.53229 34.9511V10.7264C2.53229 6.3996 6.37305 2.88012 11.0948 2.88012H148.064C152.785 2.88012 156.626 6.3996 156.626 10.7264V34.9538V34.9511ZM75.4232 36.054C75.7284 35.9088 75.9645 35.7004 76.1286 35.4287C76.2927 35.1569 76.3733 34.843 76.3733 34.4868C76.3733 33.9222 76.1775 33.479 75.7831 33.1597C75.3887 32.8405 74.8416 32.6796 74.1362 32.6796H71.8934C71.807 32.6796 71.7638 32.7192 71.7638 32.8009V37.8137C71.7638 37.8928 71.807 37.935 71.8934 37.935H72.95C73.0422 37.935 73.0882 37.8955 73.0882 37.8137V36.3204H73.4078C73.8512 36.3204 74.1938 36.4339 74.4357 36.6581C74.6775 36.8824 74.856 37.2702 74.9712 37.8216C74.9885 37.8955 75.0374 37.935 75.118 37.935H76.3042C76.4021 37.935 76.4424 37.8902 76.428 37.8005C76.287 36.9853 75.9501 36.4048 75.4203 36.0592L75.4232 36.054ZM74.1046 35.1833H73.0882V33.7956H74.1046C74.7092 33.7956 75.0144 34.0251 75.0144 34.4868C75.0144 34.9485 74.7121 35.1833 74.1046 35.1833ZM85.624 36.9404V37.8111C85.624 37.8902 85.5808 37.9324 85.4944 37.9324H81.6536C81.5673 37.9324 81.5241 37.8928 81.5241 37.8111V32.7983C81.5241 32.7192 81.5673 32.6769 81.6536 32.6769H85.4627C85.5491 32.6769 85.5923 32.7165 85.5923 32.7983V33.6689C85.5923 33.7534 85.5491 33.7956 85.4627 33.7956H82.8514V34.7559H84.8898C84.9762 34.7559 85.0193 34.7981 85.0193 34.8825V35.7242C85.0193 35.8086 84.9762 35.8508 84.8898 35.8508H82.8514V36.8111H85.4973C85.5837 36.8111 85.6269 36.8534 85.6269 36.9378L85.624 36.9404ZM78.501 20.6226C79.2352 19.3536 79.6066 17.9764 79.6066 16.528C79.6066 14.1351 78.6565 12.0534 76.7793 10.3438C74.9021 8.63423 72.5182 7.76887 69.6937 7.76887H62.876C62.542 7.76887 62.2685 8.01687 62.2685 8.32555V29.1416C62.2685 29.4477 62.5391 29.6983 62.876 29.6983H67.3991C67.7331 29.6983 68.0066 29.4503 68.0066 29.1416V25.3161H69.855C70.0594 25.3161 70.3214 25.3056 70.6381 25.2818L71.5738 26.6273C72.4088 27.8172 73.3301 28.6377 74.3119 29.0651C75.285 29.4899 76.7044 29.6957 78.645 29.6957C78.9789 29.6957 79.2524 29.4477 79.2524 29.139V25.142C79.2524 24.836 78.9818 24.5853 78.645 24.5853C77.9453 24.5853 77.3897 24.5167 76.9981 24.3822C76.6612 24.2661 76.3503 24.0207 76.0825 23.6514L75.9155 23.4166C76.9952 22.6646 77.8618 21.7254 78.501 20.6173V20.6226ZM72.7053 19.0502C71.9107 19.7282 70.9663 20.0554 69.8233 20.0554H68.0066V13.0243H69.8233C70.9663 13.0243 71.9078 13.3568 72.7053 14.0427C73.4884 14.7181 73.8714 15.5413 73.8714 16.5544C73.8714 17.5675 73.4913 18.3827 72.7082 19.0475L72.7053 19.0502ZM94.7163 32.7983V33.6848C94.7163 33.7639 94.6731 33.8061 94.5867 33.8061H91.9984V34.901H94.2326C94.3189 34.901 94.3621 34.9406 94.3621 35.0224V35.9009C94.3621 35.9854 94.3189 36.0276 94.2326 36.0276H91.9984V37.8137C91.9984 37.8928 91.9523 37.935 91.8602 37.935H90.8035C90.7171 37.935 90.674 37.8955 90.674 37.8137V32.8009C90.674 32.7218 90.7171 32.6796 90.8035 32.6796H94.5867C94.6731 32.6796 94.7163 32.7192 94.7163 32.8009V32.7983ZM94.8573 8.32555V12.3226C94.8573 12.6286 94.5867 12.8792 94.2498 12.8792H87.0693V16.3855H93.8295C94.1635 16.3855 94.437 16.6335 94.437 16.9422V20.7915C94.437 21.0975 94.1663 21.3481 93.8295 21.3481H87.0693V24.588H94.2498C94.5838 24.588 94.8573 24.836 94.8573 25.1446V29.1416C94.8573 29.4477 94.5867 29.6983 94.2498 29.6983H81.9387C81.6047 29.6983 81.3312 29.4503 81.3312 29.1416V8.32555C81.3312 8.01951 81.6018 7.76887 81.9387 7.76887H94.2498C94.5838 7.76887 94.8573 8.01687 94.8573 8.32555ZM64.5977 32.6796H62.3779C62.2915 32.6796 62.2483 32.7192 62.2483 32.8009V37.8137C62.2483 37.8928 62.2915 37.935 62.3779 37.935H63.4345C63.5267 37.935 63.5727 37.8955 63.5727 37.8137V36.3811H64.5977C65.3088 36.3811 65.8587 36.2175 66.2474 35.893C66.639 35.5685 66.8319 35.1121 66.8319 34.5264C66.8319 33.9407 66.6361 33.4869 66.2474 33.165C65.8559 32.8432 65.3059 32.6822 64.5977 32.6822V32.6796ZM64.566 35.2546H63.5756V33.7982H64.566C65.1678 33.7982 65.4672 34.0409 65.4672 34.5264C65.4672 35.0118 65.1678 35.2546 64.566 35.2546ZM31.6604 13.9504C33.5952 13.9504 35.4379 14.3145 37.1164 14.9714L36.5492 16.2061C35.0463 15.6204 33.3966 15.2959 31.6604 15.2959C29.9243 15.2959 28.2717 15.6204 26.7688 16.2088L26.2016 14.974C27.8801 14.3171 29.7257 13.953 31.6604 13.953V13.9504ZM23.1843 9.21201C23.2879 9.1698 23.3916 9.12231 23.4952 9.08274C24.2755 8.77669 25.0816 8.51814 25.9079 8.3018L25.692 7.6264C25.4905 7.67917 25.2889 7.73457 25.0903 7.79261L25.1882 8.06436C25.0125 8.11448 24.8398 8.17253 24.6642 8.22793L24.5663 7.95355C24.3532 8.01951 24.143 8.09074 23.9357 8.16197L24.0509 8.43108C23.8782 8.49176 23.7083 8.55244 23.5384 8.6184L23.4233 8.35193C23.3484 8.38095 23.2735 8.40733 23.1987 8.43635C23.0893 8.47857 22.9827 8.52606 22.8762 8.57091C22.8647 8.57618 22.8561 8.57882 22.8445 8.5841L23.1555 9.22784C23.1555 9.22784 23.1756 9.21993 23.1872 9.21465L23.1843 9.21201ZM28.4732 10.766L28.0673 8.61048C27.4137 8.71865 26.7688 8.85848 26.1383 9.02469L26.8062 11.1248C27.3504 10.9823 27.9061 10.8609 28.4732 10.766ZM31.6604 10.4969C31.9455 10.4969 32.2276 10.5048 32.5098 10.518L32.6451 8.33082C32.3198 8.31499 31.9915 8.30708 31.6604 8.30708C31.3293 8.30708 30.9925 8.31499 30.6614 8.33082L30.7967 10.518C31.0817 10.5048 31.3696 10.4969 31.6604 10.4969ZM35.5098 7.17262C35.3227 7.14096 35.1356 7.11457 34.9484 7.08819L34.9052 7.37313C34.7238 7.34674 34.5396 7.33091 34.3582 7.30981L34.4043 7.0196C34.2114 6.99585 34.0156 6.97474 33.8198 6.95628L33.791 7.24649C33.6096 7.23066 33.4225 7.2201 33.2411 7.20691L33.2699 6.91142C33.0942 6.89823 32.9157 6.88768 32.7401 6.87977L32.6969 7.58155C33.6096 7.62376 34.505 7.72138 35.3832 7.86912L35.5127 7.17525L35.5098 7.17262ZM30.6153 7.57891L30.5721 6.87713C30.3907 6.88504 30.2094 6.89823 30.028 6.91142L30.0539 7.20691C29.8696 7.2201 29.6854 7.22802 29.504 7.24649L29.4781 6.95891C29.2823 6.97738 29.0865 6.99849 28.8936 7.02223L28.9368 7.31244C28.7554 7.33355 28.5711 7.35202 28.3897 7.37576L28.3466 7.09347C28.1623 7.11985 27.978 7.14623 27.7966 7.17789L27.9262 7.87176C28.8043 7.72402 29.7026 7.62376 30.6153 7.58155V7.57891ZM40.1251 9.20674C40.1251 9.20674 40.1424 9.21465 40.151 9.21729L40.4619 8.57355C40.4619 8.57355 40.4447 8.56563 40.4332 8.56299C40.3266 8.51814 40.223 8.47065 40.1136 8.43108C40.033 8.39942 39.9523 8.37304 39.8746 8.34138L39.7566 8.61312C39.5867 8.5498 39.4139 8.48648 39.2441 8.4258L39.3621 8.15406C39.1577 8.08282 38.9504 8.01423 38.7431 7.94827L38.6423 8.22529C38.4696 8.16989 38.294 8.11448 38.1183 8.06172L38.2191 7.78734C38.0176 7.72929 37.816 7.67389 37.6145 7.61849L37.3985 8.29389C38.2249 8.51287 39.0339 8.76878 39.817 9.07482C39.9207 9.1144 40.0214 9.16188 40.1251 9.2041V9.20674ZM37.8131 13.4438C35.9216 12.7025 33.8399 12.2935 31.6576 12.2935C29.4752 12.2935 27.3907 12.7051 25.4962 13.4465L26.1037 14.7709C27.811 14.1008 29.6882 13.7314 31.6547 13.7314C33.6211 13.7314 35.4954 14.1008 37.2028 14.7682L37.8103 13.4438H37.8131ZM38.5329 12.5231C38.5329 12.5231 38.5473 12.5283 38.5531 12.531L38.7604 12.1036C38.7604 12.1036 38.746 12.0983 38.7373 12.093C38.651 12.0587 38.5675 12.0191 38.4782 11.9849C36.3793 11.1643 34.076 10.7106 31.6576 10.7106C29.2391 10.7106 26.9272 11.167 24.8283 11.9875C24.739 12.0218 24.6526 12.0614 24.5663 12.0957C24.5576 12.0983 24.549 12.1036 24.5404 12.1062L24.7476 12.5336C24.7476 12.5336 24.7649 12.5257 24.7707 12.5231C24.8571 12.4888 24.9406 12.4518 25.024 12.4175C27.0625 11.6181 29.3024 11.1775 31.6547 11.1775C34.0069 11.1775 36.2411 11.6181 38.2796 12.4149C38.3631 12.4492 38.4466 12.4861 38.53 12.5204L38.5329 12.5231ZM37.9053 13.2407L38.1903 12.6207C36.1807 11.8345 33.9753 11.3992 31.6576 11.3992C29.3399 11.3992 27.1287 11.8345 25.1191 12.6233L25.4041 13.2433C25.4041 13.2433 25.407 13.2433 25.4099 13.2433C25.3955 13.0085 25.5423 12.7816 25.7928 12.6946C26.0461 12.6048 26.3225 12.684 26.4809 12.8713C26.7486 12.7869 27.0164 12.7104 27.2899 12.6391C27.3043 12.4017 27.4799 12.1906 27.7419 12.13C28.0039 12.0693 28.2688 12.1801 28.4013 12.3832C28.6575 12.3331 28.9138 12.2909 29.1758 12.254C29.2161 12.0139 29.4205 11.8186 29.6969 11.787C29.9733 11.7553 30.2295 11.9031 30.3274 12.13C30.5721 12.1115 30.8197 12.0983 31.0673 12.0877C31.1336 11.8477 31.3696 11.6683 31.6489 11.6683C31.9282 11.6683 32.1643 11.8477 32.2305 12.0877C32.4781 12.0957 32.7257 12.1089 32.9733 12.1273C33.0741 11.9004 33.3275 11.7527 33.6039 11.7843C33.8774 11.816 34.0818 12.0112 34.1221 12.2487C34.3812 12.2856 34.6403 12.3278 34.8966 12.378C35.0319 12.1748 35.2939 12.0666 35.5559 12.1273C35.8179 12.188 35.9935 12.3964 36.0079 12.6339C36.2814 12.7051 36.5521 12.7843 36.8198 12.866C36.9811 12.6814 37.2546 12.6022 37.508 12.6919C37.7584 12.7816 37.9024 13.0059 37.8909 13.238C37.8909 13.238 37.8938 13.238 37.8966 13.238L37.9053 13.2407ZM25.669 8.58674C25.0125 8.77142 24.3676 8.98248 23.74 9.22257C23.6881 9.24103 23.6363 9.2595 23.5845 9.27797L23.7169 9.56818C23.7687 9.54707 23.8206 9.53124 23.8724 9.51278C24.4885 9.27797 25.1191 9.06954 25.764 8.8875L25.669 8.5841V8.58674ZM24.8916 11.7316C25.4156 11.5311 25.954 11.3543 26.501 11.1986L25.8331 9.09857C25.1968 9.27533 24.5749 9.48112 23.9674 9.71329C23.9156 9.73175 23.8638 9.75022 23.8148 9.76869L24.7419 11.7843C24.7908 11.7659 24.8427 11.7474 24.8945 11.7289L24.8916 11.7316ZM30.4829 10.5312L30.3476 8.34665C29.6825 8.38623 29.026 8.45482 28.3782 8.55244L28.7842 10.7079C29.3427 10.6235 29.9099 10.5655 30.4829 10.5285V10.5312ZM28.2803 8.02742L28.3379 8.33874C28.9944 8.23848 29.6594 8.16989 30.3332 8.12768L30.313 7.81372C29.6249 7.85593 28.9454 7.92717 28.2775 8.02742H28.2803ZM39.7278 9.27533C39.6759 9.25422 39.6212 9.2384 39.5694 9.21729C38.9418 8.9772 38.2968 8.76614 37.6404 8.58146L37.5454 8.88486C38.1903 9.06427 38.8208 9.27269 39.437 9.5075C39.4888 9.52861 39.5435 9.54444 39.5953 9.56554L39.7278 9.27533ZM39.342 9.70801C38.7345 9.47584 38.1126 9.27005 37.4763 9.09329L36.8083 11.1934C37.3582 11.3464 37.8938 11.5258 38.4206 11.7237C38.4725 11.7448 38.5272 11.7606 38.579 11.7817L39.5032 9.76605C39.4514 9.74495 39.3967 9.72912 39.3448 9.70801H39.342ZM32.8236 10.5285C33.3994 10.5628 33.9666 10.6209 34.5252 10.7053L34.9311 8.5498C34.2833 8.45219 33.6269 8.38359 32.9618 8.34402L32.8265 10.5285H32.8236ZM35.0261 8.02214C34.3582 7.92189 33.6787 7.85066 32.9906 7.80844L32.9704 8.1224C33.6442 8.16197 34.3121 8.23057 34.9657 8.33082L35.0233 8.01951L35.0261 8.02214ZM34.8332 10.7554C35.3976 10.8504 35.9532 10.9691 36.5003 11.1116L37.1682 9.0115C36.5377 8.84529 35.8928 8.7081 35.2363 8.59729L34.8304 10.7528L34.8332 10.7554ZM31.6489 20.9181C28.7669 20.9181 26.2304 22.2953 24.7678 24.3716H25.1104C26.5385 22.4483 28.9339 21.1846 31.6489 21.1846C34.3639 21.1846 36.7594 22.4483 38.1874 24.3716H38.53C37.0675 22.2953 34.5309 20.9181 31.6489 20.9181ZM44.9707 14.0031C45.0772 14.0454 45.8661 13.6945 46.4563 13.9134C46.8248 14.0506 46.9745 14.267 47.1156 14.5493C47.1271 14.0823 46.8651 13.8923 46.5945 13.7578C46.2202 13.5731 45.1664 13.7789 45.1319 13.7683C45.0973 13.7578 44.7087 12.6866 43.819 13.4306C44.867 12.9689 44.867 13.9609 44.9707 14.0031ZM31.9282 24.8491H31.4935V25.514H30.7593V25.9124H31.4935V27.7249H31.9282V25.9124H32.6624V25.514H31.9282V24.8491ZM31.6489 20.2744C28.3638 20.2744 25.4876 21.9259 23.9473 24.3716H24.2784C25.7899 22.0763 28.5279 20.5382 31.6518 20.5382C34.7757 20.5382 37.5108 22.0763 39.0224 24.3716H39.3535C37.8103 21.9233 34.9369 20.2744 31.6518 20.2744H31.6489ZM23.4751 18.3273H39.8228V24.3637C38.2393 21.7017 35.1672 19.8944 31.6489 19.8944C28.1306 19.8944 25.0586 21.7043 23.4751 24.3637V18.3273ZM31.0443 18.9763L31.1076 19.0185L31.2372 19.1056L31.3668 19.1927L31.4186 19.227L31.3668 19.3694L31.2746 19.6332L31.3668 19.5726L31.4963 19.4855L31.6259 19.3984L31.6489 19.3826L31.7583 19.4565L31.8879 19.5435L32.0175 19.6306L32.0232 19.6359L32.0175 19.6174L31.8879 19.2507L31.8821 19.2296L31.8879 19.2243L32.0175 19.1373L32.1499 19.0475L32.2535 18.9763H31.7871L31.7583 18.8893L31.6489 18.5753L31.6259 18.6386L31.505 18.9763H31.0443ZM37.6807 24.3743H25.62C26.9876 22.6726 29.1815 21.5671 31.6489 21.5671C34.1163 21.5671 36.3102 22.6726 37.6778 24.3743H37.6807ZM32.314 23.0182L32.3543 23.005L32.4551 22.9733L32.5587 22.9417L32.4551 22.8915L32.3543 22.8414L32.291 22.8097L32.3543 22.7517L32.4551 22.6567L32.5386 22.5776H32.2075L32.2507 22.4852L32.3284 22.3085L32.2507 22.3296L32.147 22.356L32.0462 22.3823L32.0203 22.3876L31.9973 22.1L31.9426 22.1449L31.8447 22.2214L31.7526 22.2926L31.7382 22.2663L31.6317 22.0684V22.0631L31.5309 22.2293L31.5021 22.2768L31.4301 22.2214L31.3265 22.1396L31.2343 22.0657L31.2545 22.4087L31.2257 22.3982L31.122 22.3612L31.0184 22.3243L30.9464 22.2979L31.0184 22.4325L31.0904 22.5644H30.7161L30.8111 22.6752L30.9176 22.8018L30.9435 22.8335L30.9176 22.8467L30.8111 22.8968L30.7132 22.9417L30.6988 22.9496L30.7132 22.9549L30.8111 22.9971L30.9176 23.0419L30.9637 23.063L30.9176 23.1052L30.8111 23.2055L30.7132 23.2978L30.6988 23.311H31.0731L31.0184 23.4139L30.9263 23.5933L31.0184 23.5643L31.122 23.5326L31.2257 23.501H31.2343L31.2545 23.844L31.3265 23.7833L31.4301 23.6936L31.5222 23.6144L31.5309 23.6276L31.6317 23.7912L31.6518 23.8228L31.7382 23.596L31.7526 23.559L31.8447 23.6487L31.9426 23.7463L32.0232 23.8255L32.0405 23.464H32.0462L32.147 23.5063L32.2507 23.5458L32.2881 23.5617L32.2507 23.4667L32.1873 23.311H32.5155L32.4551 23.2266L32.3543 23.0815L32.314 23.0234V23.0182ZM39.1404 35.4076C38.9648 35.3047 38.7431 35.178 38.4465 35.178C38.15 35.178 37.9283 35.3047 37.7527 35.4076C37.6001 35.4973 37.4792 35.5659 37.3294 35.5659C37.1797 35.5659 37.0588 35.4946 36.9062 35.4076C36.7306 35.3047 36.5089 35.178 36.2123 35.178C35.9158 35.178 35.6941 35.3047 35.5185 35.4076C35.3659 35.4973 35.245 35.5659 35.0952 35.5659C34.9455 35.5659 34.8246 35.4946 34.672 35.4076C34.4964 35.3047 34.2747 35.178 33.9781 35.178C33.6816 35.178 33.4599 35.3047 33.2843 35.4076C33.1317 35.4973 33.0108 35.5659 32.861 35.5659C32.7113 35.5659 32.5904 35.4946 32.4378 35.4076C32.2622 35.3047 32.0405 35.178 31.7439 35.178C31.4474 35.178 31.2257 35.3047 31.0501 35.4076C30.8975 35.4973 30.7765 35.5659 30.6268 35.5659C30.4771 35.5659 30.3562 35.4946 30.2036 35.4076C30.028 35.3047 29.8063 35.178 29.5097 35.178C29.2132 35.178 28.9915 35.3047 28.8159 35.4076C28.6633 35.4973 28.5423 35.5659 28.3926 35.5659C28.2429 35.5659 28.122 35.4946 27.9694 35.4076C27.7938 35.3047 27.5721 35.178 27.2755 35.178C26.979 35.178 26.7573 35.3047 26.5817 35.4076C26.4291 35.4973 26.3081 35.5659 26.1584 35.5659C26.0087 35.5659 25.8878 35.4946 25.7352 35.4076C25.5596 35.3047 25.3379 35.178 25.0413 35.178C24.7448 35.178 24.5231 35.3047 24.3475 35.4076C24.1949 35.4973 24.0739 35.5659 23.9242 35.5659C23.7745 35.5659 23.6536 35.4946 23.501 35.4076C23.4952 35.4049 23.4895 35.3997 23.4837 35.397V35.8614C23.6104 35.9194 23.7515 35.9642 23.9242 35.9642C24.2035 35.9642 24.4079 35.8455 24.5864 35.7426C24.7419 35.6529 24.8743 35.5764 25.0413 35.5764C25.2083 35.5764 25.3408 35.6529 25.4962 35.7426C25.6747 35.8455 25.8791 35.9642 26.1584 35.9642C26.4377 35.9642 26.6421 35.8455 26.8206 35.7426C26.9761 35.6529 27.1085 35.5764 27.2755 35.5764C27.4425 35.5764 27.575 35.6529 27.7304 35.7426C27.9089 35.8455 28.1134 35.9642 28.3926 35.9642C28.6719 35.9642 28.8763 35.8455 29.0548 35.7426C29.2103 35.6529 29.3427 35.5764 29.5097 35.5764C29.6767 35.5764 29.8092 35.6529 29.9646 35.7426C30.1431 35.8455 30.3476 35.9642 30.6268 35.9642C30.9061 35.9642 31.1105 35.8455 31.289 35.7426C31.4445 35.6529 31.5769 35.5764 31.7439 35.5764C31.9109 35.5764 32.0434 35.6529 32.1988 35.7426C32.3773 35.8455 32.5818 35.9642 32.861 35.9642C33.1403 35.9642 33.3447 35.8455 33.5232 35.7426C33.6787 35.6529 33.8112 35.5764 33.9781 35.5764C34.1451 35.5764 34.2776 35.6529 34.433 35.7426C34.6115 35.8455 34.816 35.9642 35.0952 35.9642C35.3745 35.9642 35.5789 35.8455 35.7574 35.7426C35.9129 35.6529 36.0454 35.5764 36.2123 35.5764C36.3793 35.5764 36.5118 35.6529 36.6672 35.7426C36.8458 35.8455 37.0502 35.9642 37.3294 35.9642C37.6087 35.9642 37.8131 35.8455 37.9916 35.7426C38.1471 35.6529 38.2796 35.5764 38.4465 35.5764C38.6135 35.5764 38.746 35.6529 38.9015 35.7426C39.08 35.8455 39.2844 35.9642 39.5637 35.9642C39.6615 35.9642 39.7508 35.9484 39.8314 35.9273V35.4946C39.7422 35.5395 39.6587 35.5659 39.5637 35.5659C39.4139 35.5659 39.293 35.4946 39.1404 35.4076ZM39.1404 36.1859C38.9648 36.083 38.7431 35.9563 38.4465 35.9563C38.15 35.9563 37.9283 36.083 37.7527 36.1859C37.6001 36.2756 37.4792 36.3442 37.3294 36.3442C37.1797 36.3442 37.0588 36.2729 36.9062 36.1859C36.7306 36.083 36.5089 35.9563 36.2123 35.9563C35.9158 35.9563 35.6941 36.083 35.5185 36.1859C35.3659 36.2756 35.245 36.3442 35.0952 36.3442C34.9455 36.3442 34.8246 36.2729 34.672 36.1859C34.4964 36.083 34.2747 35.9563 33.9781 35.9563C33.6816 35.9563 33.4599 36.083 33.2843 36.1859C33.1317 36.2756 33.0108 36.3442 32.861 36.3442C32.7113 36.3442 32.5904 36.2729 32.4378 36.1859C32.2622 36.083 32.0405 35.9563 31.7439 35.9563C31.4474 35.9563 31.2257 36.083 31.0501 36.1859C30.8975 36.2756 30.7765 36.3442 30.6268 36.3442C30.4771 36.3442 30.3562 36.2729 30.2036 36.1859C30.028 36.083 29.8063 35.9563 29.5097 35.9563C29.2132 35.9563 28.9915 36.083 28.8159 36.1859C28.6633 36.2756 28.5423 36.3442 28.3926 36.3442C28.2429 36.3442 28.122 36.2729 27.9694 36.1859C27.7938 36.083 27.5721 35.9563 27.2755 35.9563C26.979 35.9563 26.7573 36.083 26.5817 36.1859C26.4291 36.2756 26.3081 36.3442 26.1584 36.3442C26.0087 36.3442 25.8878 36.2729 25.7352 36.1859C25.5596 36.083 25.3379 35.9563 25.0413 35.9563C24.7448 35.9563 24.5231 36.083 24.3475 36.1859C24.1949 36.2756 24.0739 36.3442 23.9242 36.3442C23.7745 36.3442 23.6536 36.2729 23.501 36.1859C23.501 36.1859 23.4981 36.1859 23.4952 36.1832C23.5067 36.3019 23.5269 36.4101 23.5557 36.5077C23.5758 36.5737 23.5989 36.6344 23.6277 36.6924C23.7169 36.7214 23.8148 36.7399 23.9242 36.7399C24.2035 36.7399 24.4079 36.6212 24.5893 36.5183C24.7448 36.4286 24.8772 36.3521 25.0442 36.3521C25.2112 36.3521 25.3436 36.4286 25.4991 36.5183C25.6776 36.6238 25.882 36.7399 26.1613 36.7399C26.4406 36.7399 26.645 36.6212 26.8264 36.5183C26.9819 36.4286 27.1143 36.3521 27.2813 36.3521C27.4483 36.3521 27.5807 36.4286 27.7362 36.5183C27.9147 36.6238 28.1191 36.7399 28.3984 36.7399C28.6777 36.7399 28.8821 36.6212 29.0635 36.5183C29.2189 36.4286 29.3514 36.3521 29.5184 36.3521C29.6854 36.3521 29.8178 36.4286 29.9733 36.5183C30.1518 36.6238 30.3562 36.7399 30.6355 36.7399C30.9147 36.7399 31.1192 36.6212 31.3006 36.5183C31.456 36.4286 31.5885 36.3521 31.7555 36.3521C31.9224 36.3521 32.0549 36.4286 32.2104 36.5183C32.3889 36.6238 32.5933 36.7399 32.8726 36.7399C33.1518 36.7399 33.3563 36.6212 33.5376 36.5183C33.6931 36.4286 33.8255 36.3521 33.9925 36.3521C34.1595 36.3521 34.292 36.4286 34.4474 36.5183C34.6259 36.6238 34.8304 36.7399 35.1096 36.7399C35.3889 36.7399 35.5933 36.6212 35.7747 36.5183C35.9302 36.4286 36.0626 36.3521 36.2296 36.3521C36.3966 36.3521 36.5291 36.4286 36.6845 36.5183C36.863 36.6238 37.0674 36.7399 37.3467 36.7399C37.626 36.7399 37.8304 36.6212 38.0118 36.5183C38.1673 36.4286 38.2997 36.3521 38.4667 36.3521C38.6337 36.3521 38.7661 36.4286 38.9216 36.5183C39.1001 36.6238 39.3045 36.7399 39.5838 36.7399C39.6184 36.7399 39.6529 36.7399 39.6875 36.7346C39.722 36.6634 39.7537 36.5895 39.7796 36.5077C39.7997 36.4365 39.817 36.3626 39.8285 36.2835C39.7479 36.3204 39.6731 36.3442 39.5838 36.3442C39.4341 36.3442 39.3132 36.2729 39.1606 36.1859H39.1404ZM16.1938 17.4778C16.8243 17.7469 17.1899 17.8366 17.6909 18.3088C18.1487 18.7415 18.8022 18.8576 19.2917 18.4355C19.7812 18.0133 19.9251 17.8893 19.9251 17.8893C19.9251 17.8893 20.3627 18.0213 20.7745 17.8524C20.9702 18.1927 21.0278 19.2771 19.0009 18.9315C19.7725 19.5699 21.6094 19.3826 21.1862 17.4804C21.3618 17.3036 21.3359 16.9185 21.2956 16.4963C21.2265 15.7945 21.4194 15.66 21.4165 15.2827C21.4079 14.9002 21.3186 14.6522 20.8867 14.2485C20.4549 13.8448 20.1468 13.7129 19.9654 13.6997C19.9136 13.6997 19.8128 13.7551 19.8128 13.7551C19.8128 13.7551 20.5384 14.0744 20.7716 14.4807C21.0105 14.8843 20.8781 15.4648 20.8004 15.8236C20.7197 16.185 20.8176 16.491 20.9386 16.7206C21.0652 16.9527 21.1919 17.2403 20.9299 17.4962C20.6708 17.7548 20.0144 17.5939 20.0144 17.5939C20.0144 17.5939 19.833 17.3538 19.951 17.0556C20.0719 16.7654 20.2735 16.6282 20.2648 16.462C20.2533 16.2985 20.046 16.1876 19.833 15.9871C19.617 15.7893 19.4213 15.3724 19.5249 15.1772C19.6257 14.9767 19.7754 14.821 20.0316 14.7445C20.285 14.668 20.3541 14.5466 20.2447 14.3778C20.1353 14.201 19.8416 14.2195 19.643 14.391C19.4501 14.5625 19.1477 14.945 19.2485 15.4014C19.355 15.8579 19.666 16.185 19.8416 16.3855C20.023 16.5807 19.7869 16.8446 19.381 16.9264C18.975 17.0161 18.7245 16.9844 18.6756 16.9343C18.6295 16.8842 18.6381 16.5649 18.5719 16.2035C18.5028 15.842 17.904 15.47 17.4145 15.4806C16.9251 15.4859 16.6285 15.5888 16.735 15.9106C17.0143 16.3248 17.57 15.8341 17.57 15.8341C17.57 15.8341 18.045 16.0584 18.212 16.4093C18.3733 16.7654 18.3186 17.1269 18.5546 17.1876C18.785 17.2456 19.3262 17.0873 19.4644 17.2535C19.6142 17.4197 19.6602 17.6704 19.6602 17.6704C19.6602 17.6704 18.903 18.694 18.14 18.2983C17.8262 18.1347 17.4088 17.7574 16.9337 17.4778C16.4615 17.2034 15.9231 17.1163 15.9231 16.375C15.9231 15.6336 15.9692 15.4331 16.0815 14.9688C16.1966 14.5044 16.1966 13.9952 16.8588 13.9187C17.5268 13.8422 18.1976 13.9477 18.3099 13.9029C18.4222 13.858 18.4222 12.8106 19.5307 13.2987C18.5892 12.5125 18.1804 13.6443 18.1429 13.6575C18.1055 13.6681 16.8761 13.4623 16.4817 13.6575C16.0872 13.8528 15.9778 14.0612 15.7014 15.2695C15.4394 16.4119 15.5603 17.2113 16.188 17.4778H16.1938ZM21.0192 20.5461C21.3416 21.2558 21.5086 21.7993 21.5086 21.7993C20.7572 20.9234 20.023 20.744 19.6861 20.3799C19.6199 20.9893 19.7293 21.4141 19.7293 21.4141C19.7293 21.4141 18.9347 21.0131 18.5028 20.0659C18.4711 20.707 18.7936 21.7571 20.5268 22.1396C20.0921 21.604 20.0748 21.1661 20.0748 21.1661C20.0748 21.1661 20.9904 21.6806 21.9981 22.852C22.0557 21.7412 21.8512 21.1107 21.0192 20.5487V20.5461ZM39.1375 34.6345C38.9619 34.5317 38.7402 34.405 38.4437 34.405C38.1471 34.405 37.9254 34.5317 37.7498 34.6345C37.5972 34.7243 37.4763 34.7928 37.3266 34.7928C37.1769 34.7928 37.0559 34.7216 36.9033 34.6345C36.7277 34.5317 36.506 34.405 36.2095 34.405C35.9129 34.405 35.6912 34.5317 35.5156 34.6372C35.363 34.7269 35.2421 34.7955 35.0924 34.7955C34.9426 34.7955 34.8217 34.7243 34.6691 34.6372C34.4935 34.5343 34.2718 34.4077 33.9753 34.4077C33.6787 34.4077 33.457 34.5343 33.2814 34.6372C33.1288 34.7269 33.0079 34.7955 32.8582 34.7955C32.7084 34.7955 32.5875 34.7243 32.4349 34.6372C32.2593 34.5343 32.0376 34.4077 31.7411 34.4077C31.4445 34.4077 31.2228 34.5343 31.0472 34.6372C30.8946 34.7269 30.7737 34.7955 30.624 34.7955C30.4742 34.7955 30.3533 34.7243 30.2007 34.6372C30.0251 34.5343 29.8034 34.4077 29.5069 34.4077C29.2103 34.4077 28.9886 34.5343 28.813 34.6372C28.6604 34.7269 28.5395 34.7955 28.3897 34.7955C28.24 34.7955 28.1191 34.7243 27.9665 34.6372C27.7909 34.5343 27.5692 34.4077 27.2726 34.4077C26.9761 34.4077 26.7544 34.5343 26.5788 34.6372C26.4262 34.7269 26.3053 34.7955 26.1555 34.7955C26.0058 34.7955 25.8849 34.7243 25.7323 34.6372C25.5567 34.5343 25.335 34.4077 25.0384 34.4077C24.7419 34.4077 24.5202 34.5343 24.3446 34.6372C24.192 34.7269 24.0711 34.7955 23.9213 34.7955C23.7716 34.7955 23.6507 34.7243 23.4981 34.6372C23.4924 34.6346 23.4866 34.6293 23.4808 34.6266V35.091C23.6075 35.149 23.7486 35.1939 23.9213 35.1939C24.2006 35.1939 24.405 35.0751 24.5864 34.9723C24.7419 34.8826 24.8743 34.806 25.0413 34.806C25.2083 34.806 25.3408 34.8826 25.4962 34.9723C25.6747 35.0778 25.8791 35.1939 26.1584 35.1939C26.4377 35.1939 26.6421 35.0751 26.8235 34.9723C26.979 34.8826 27.1114 34.806 27.2784 34.806C27.4454 34.806 27.5778 34.8826 27.7333 34.9723C27.9118 35.0778 28.1162 35.1939 28.3955 35.1939C28.6748 35.1939 28.8792 35.0751 29.0606 34.9723C29.2161 34.8826 29.3485 34.806 29.5155 34.806C29.6825 34.806 29.8149 34.8826 29.9704 34.9723C30.1489 35.0778 30.3533 35.1939 30.6326 35.1939C30.9119 35.1939 31.1163 35.0751 31.2977 34.9723C31.4531 34.8826 31.5856 34.806 31.7526 34.806C31.9196 34.806 32.052 34.8826 32.2075 34.9723C32.386 35.0778 32.5904 35.1939 32.8697 35.1939C33.149 35.1939 33.3534 35.0751 33.5348 34.9723C33.6902 34.8826 33.8227 34.806 33.9897 34.806C34.1566 34.806 34.2891 34.8826 34.4446 34.9723C34.6231 35.0778 34.8275 35.1939 35.1068 35.1939C35.386 35.1939 35.5905 35.0751 35.7718 34.9723C35.9273 34.8826 36.0598 34.806 36.2267 34.806C36.3937 34.806 36.5262 34.8826 36.6816 34.9723C36.8602 35.0778 37.0646 35.1939 37.3438 35.1939C37.6231 35.1939 37.8275 35.0751 38.0089 34.9723C38.1644 34.8826 38.2968 34.806 38.4638 34.806C38.6308 34.806 38.7633 34.8826 38.9187 34.9723C39.0972 35.0778 39.3017 35.1939 39.5809 35.1939C39.6788 35.1939 39.7681 35.178 39.8487 35.1569V34.7243C39.7594 34.7691 39.6759 34.7981 39.5809 34.7981C39.4312 34.7981 39.3103 34.7269 39.1577 34.6398L39.1375 34.6345ZM38.4437 36.7399C38.1471 36.7399 37.9254 36.8665 37.7498 36.9694C37.5972 37.0591 37.4763 37.1277 37.3266 37.1277C37.1769 37.1277 37.0559 37.0565 36.9033 36.9694C36.7277 36.8665 36.506 36.7399 36.2095 36.7399C35.9129 36.7399 35.6912 36.8665 35.5156 36.9694C35.363 37.0591 35.2421 37.1277 35.0924 37.1277C34.9426 37.1277 34.8217 37.0565 34.6691 36.9694C34.4935 36.8665 34.2718 36.7399 33.9753 36.7399C33.6787 36.7399 33.457 36.8665 33.2814 36.9694C33.1288 37.0591 33.0079 37.1277 32.8582 37.1277C32.7084 37.1277 32.5875 37.0565 32.4349 36.9694C32.2593 36.8665 32.0376 36.7399 31.7411 36.7399C31.4445 36.7399 31.2228 36.8665 31.0472 36.9694C30.8946 37.0591 30.7737 37.1277 30.624 37.1277C30.4742 37.1277 30.3533 37.0565 30.2007 36.9694C30.0251 36.8665 29.8034 36.7399 29.5069 36.7399C29.2103 36.7399 28.9886 36.8665 28.813 36.9694C28.6604 37.0591 28.5395 37.1277 28.3897 37.1277C28.24 37.1277 28.1191 37.0565 27.9665 36.9694C27.7909 36.8665 27.5692 36.7399 27.2726 36.7399C26.9761 36.7399 26.7544 36.8665 26.5788 36.9694C26.4262 37.0591 26.3053 37.1277 26.1555 37.1277C26.0058 37.1277 25.8849 37.0565 25.7323 36.9694C25.5567 36.8665 25.335 36.7399 25.0384 36.7399C24.7419 36.7399 24.5202 36.8665 24.3446 36.9694C24.1977 37.0539 24.0826 37.1198 23.9415 37.1277C24.0826 37.2517 24.2467 37.3362 24.4166 37.3968C24.4741 37.3678 24.5317 37.3362 24.5835 37.3045C24.739 37.2148 24.8715 37.1383 25.0384 37.1383C25.2054 37.1383 25.3379 37.2148 25.4933 37.3045C25.6603 37.4021 25.8475 37.5076 26.098 37.5235H26.2131C26.4636 37.5076 26.6508 37.4021 26.8177 37.3045C26.9732 37.2148 27.1057 37.1383 27.2726 37.1383C27.4396 37.1383 27.5721 37.2148 27.7276 37.3045C27.8945 37.4021 28.0817 37.5076 28.3322 37.5235H28.4473C28.6978 37.5076 28.885 37.4021 29.052 37.3045C29.2074 37.2148 29.3399 37.1383 29.5069 37.1383C29.6738 37.1383 29.8063 37.2148 29.9618 37.3045C30.1287 37.4021 30.3159 37.5076 30.5664 37.5235H30.6815C30.932 37.5076 31.1192 37.4021 31.2862 37.3045C31.4416 37.2148 31.5741 37.1383 31.7411 37.1383C31.908 37.1383 32.0405 37.2148 32.196 37.3045C32.3629 37.4021 32.5501 37.5076 32.8006 37.5235H32.9157C33.1662 37.5076 33.3534 37.4021 33.5204 37.3045C33.6758 37.2148 33.8083 37.1383 33.9753 37.1383C34.1423 37.1383 34.2747 37.2148 34.4302 37.3045C34.5972 37.4021 34.7843 37.5076 35.0348 37.5235H35.1499C35.4004 37.5076 35.5876 37.4021 35.7546 37.3045C35.91 37.2148 36.0425 37.1383 36.2095 37.1383C36.3765 37.1383 36.5089 37.2148 36.6644 37.3045C36.8314 37.4021 37.0185 37.5076 37.269 37.5235H37.3842C37.6346 37.5076 37.8218 37.4021 37.9888 37.3045C38.1442 37.2148 38.2767 37.1383 38.4437 37.1383C38.6107 37.1383 38.7431 37.2148 38.8986 37.3045C38.9274 37.323 38.959 37.3388 38.9907 37.3573C39.1375 37.2966 39.2757 37.2122 39.3967 37.0987C39.3132 37.0697 39.2326 37.0222 39.1375 36.9694C38.9619 36.8665 38.7402 36.7399 38.4437 36.7399ZM51.8806 19.0792C51.8806 20.1002 52.9516 21.021 54.0831 21.9945C55.3902 23.1184 56.7405 24.2793 56.7405 25.791C56.7405 26.4981 56.3922 27.1154 55.7328 27.5719C55.3643 27.8278 54.9987 27.9676 54.8317 28.023C54.8317 28.4451 54.7827 28.8277 54.7338 29.1759C54.6704 29.6376 54.6186 30.036 54.7194 30.3526C54.8288 30.6982 55.3557 31.1415 55.7818 31.495C56.0265 31.7008 56.2396 31.8802 56.3461 32.0174C56.5735 32.3129 56.4613 32.946 56.3403 33.6162C56.2943 33.88 56.2482 34.1306 56.2338 34.3311C56.2194 34.5343 56.2194 34.7717 56.2165 35.0277C56.2165 35.6186 56.2165 36.2281 56.0265 36.5763C55.7703 37.0459 54.9497 37.6475 54.2904 37.8612C54.2242 37.8876 54.1551 37.9113 54.0802 37.9324C54.0543 37.9403 54.0284 37.9482 54.0025 37.9562C53.9852 37.9641 53.9651 37.972 53.9478 37.9799C53.9478 37.9799 53.9478 37.9773 53.9478 37.9746V37.9799C53.9219 37.9905 53.896 37.9984 53.87 38.0063C53.8211 38.0221 53.7693 38.0406 53.7203 38.0538C53.7203 38.0538 53.7203 38.0485 53.7203 38.0432V38.0538C53.6541 38.0722 53.585 38.0854 53.5188 38.0986C53.5102 38.0986 53.4986 38.1013 53.49 38.1039C53.3086 38.1435 53.1157 38.1593 52.8767 38.1408C52.8192 38.1382 52.7645 38.1329 52.7069 38.1276C52.6522 38.1224 52.6004 38.1145 52.5456 38.1065C52.5428 38.1065 52.5399 38.1065 52.5341 38.1065C52.4564 38.0933 52.3787 38.0749 52.3009 38.0564C52.3009 38.0564 52.3009 38.0564 52.3009 38.0511V38.0564C52.2693 38.0485 52.2405 38.0379 52.2117 38.03C52.1944 38.0248 52.1771 38.0221 52.1598 38.0168C51.5063 37.8506 51.2759 37.6528 51.1953 37.4417C51.0456 37.1013 51.1896 36.6265 51.4228 36.3996C51.7769 36.0539 53.7376 35.8825 54.0716 35.1596C54.4084 34.434 54.0716 33.2943 54.0716 33.2943C54.0716 33.2943 53.7376 33.1228 52.1915 32.3999C51.1809 31.925 50.5274 31.1705 50.1445 30.2867C49.8796 30.3843 49.3441 30.6006 48.8488 30.933C48.155 31.3974 47.8354 32.0728 47.8181 32.5872C47.798 33.107 47.9851 33.45 47.798 34.0541C47.6137 34.6609 46.8594 34.8456 46.3526 35.3627C45.9265 35.7954 45.1952 36.6133 45.1175 36.7082C45.0398 36.8032 44.9303 36.9272 44.7461 37.0671C44.6165 37.1647 42.5867 37.4602 41.579 37.3124C41.1587 37.2517 41.4725 36.6687 41.7921 36.1938C42.4802 35.1701 44.2307 34.7269 45.1348 33.7112C46.0302 32.6928 45.1693 31.6612 45.1693 30.4186C45.1693 29.1759 46.3555 28.3396 46.3555 28.3396C45.4428 27.6431 44.3516 27.5376 43.1885 26.6379C41.628 27.7776 41.8468 29.3817 41.6194 30.2075C41.4898 30.6877 41.104 31.0729 40.5857 31.276C40.5742 31.2813 40.5598 31.2839 40.5483 31.2892V32.8854H40.5541V35.8508C40.5541 36.0803 40.5339 36.2808 40.5022 36.4682C40.413 37.0011 40.2028 37.3705 39.9322 37.6211C39.866 37.6818 39.7969 37.7398 39.722 37.7873C39.2297 38.1145 38.6078 38.1646 38.1068 38.1646H25.1997C24.7102 38.1646 24.1056 38.1171 23.6219 37.8084C23.5154 37.7398 23.4146 37.6554 23.3196 37.5604C23.0749 37.3071 22.8906 36.951 22.81 36.4471C22.7812 36.265 22.7611 36.0698 22.7611 35.8482V32.8827V31.2998C22.7495 31.2945 22.738 31.2918 22.7294 31.2892C22.2111 31.0861 21.8225 30.7009 21.6958 30.2207C21.4683 29.3949 21.6008 28.891 21.2265 28.2921C20.999 27.8489 20.6046 27.5402 20.2476 27.3344C20.023 27.5217 19.5767 27.8067 18.7504 28.0679C17.3368 28.519 17.1295 28.5348 17.1295 28.5348C17.1295 28.5348 18.1458 29.1865 18.1458 30.4318C18.1458 31.677 17.2849 32.7033 18.1804 33.7243C19.0844 34.7401 20.8378 35.1833 21.523 36.207C21.8426 36.6845 22.1564 37.2649 21.7361 37.3256C20.7284 37.4734 18.7015 37.1752 18.569 37.0802C18.3848 36.9404 18.2754 36.8164 18.1976 36.7214C18.1199 36.6265 17.3886 35.8112 16.9625 35.3759C16.4558 34.8588 15.7014 34.6715 15.5172 34.0673C15.33 33.4632 15.5172 33.1202 15.497 32.6004C15.4797 32.086 15.1602 31.4106 14.4663 30.9462C13.9711 30.6138 13.4356 30.3975 13.1707 30.2998C12.7877 31.181 12.1342 31.9382 11.1236 32.4131C9.57752 33.136 9.24354 33.3075 9.24354 33.3075C9.24354 33.3075 8.90668 34.4472 9.24354 35.1728C9.57752 35.8957 11.5353 36.0671 11.8923 36.4128C12.1255 36.6397 12.2695 37.1145 12.1198 37.4549C12.0392 37.6659 11.8088 37.8638 11.1553 38.03C11.138 38.0353 11.1207 38.0379 11.1035 38.0432C11.0747 38.0511 11.043 38.0617 11.0142 38.0696C10.9365 38.0907 10.8616 38.1065 10.781 38.1197C10.7781 38.1197 10.7752 38.1197 10.7695 38.1197C10.7177 38.1276 10.6629 38.1356 10.6082 38.1408C10.5507 38.1461 10.496 38.1514 10.4384 38.154C10.1994 38.1725 10.0065 38.154 9.82512 38.1171C9.81648 38.1171 9.80497 38.1171 9.79633 38.1118C9.73011 38.0986 9.66101 38.0854 9.59479 38.067C9.54297 38.0538 9.49402 38.0379 9.44508 38.0195C9.41916 38.0116 9.39325 38.0036 9.36734 37.9931C9.34719 37.9852 9.32991 37.9773 9.31264 37.9693C9.28673 37.9614 9.26081 37.9535 9.2349 37.9456C9.16292 37.9245 9.09382 37.8981 9.02472 37.8744C8.3654 37.6607 7.54485 37.0591 7.28861 36.5895C7.09859 36.2413 7.09859 35.6292 7.09859 35.0408C7.09859 34.7876 7.09859 34.5475 7.08131 34.347C7.06692 34.1491 7.02085 33.8985 6.97478 33.632C6.85386 32.9619 6.74158 32.3287 6.96903 32.0332C7.07555 31.896 7.28861 31.7166 7.53334 31.5108C7.95657 31.1547 8.48633 30.7141 8.59573 30.3684C8.6965 30.0518 8.6418 29.6508 8.58134 29.1891C8.53527 28.8409 8.48345 28.4583 8.48345 28.0362C8.31646 27.9808 7.94793 27.841 7.58228 27.585C6.92296 27.126 6.57459 26.5113 6.57459 25.8042C6.57459 24.2925 7.9249 23.1316 9.23202 22.0077C10.3664 21.0315 11.4346 20.1108 11.4346 19.0924C11.4346 18.5278 11.2532 18.1532 10.9134 18.0133C10.8184 17.9738 10.709 17.9527 10.5967 17.9527C10.4643 17.9685 10.2858 18.0213 10.113 18.1743C9.87983 18.3801 9.63222 19.0634 9.50842 19.5884C9.39613 20.0607 8.83182 21.4642 6.48533 20.4406C8.9585 20.7202 7.7867 17.7653 10.4096 17.6862C10.6313 17.6598 10.8501 17.6809 11.0372 17.7601C11.3568 17.892 11.7369 18.2323 11.7369 19.0924C11.7369 20.2321 10.6198 21.1925 9.43644 22.2109C8.17826 23.2952 6.87689 24.4138 6.87689 25.8042C6.87689 26.4268 7.17344 26.9492 7.75791 27.3582C8.03718 27.5534 8.31934 27.6747 8.49496 27.7407C8.50072 27.6378 8.50936 27.5296 8.52376 27.4215C8.53527 27.3291 8.55543 27.2394 8.57846 27.1524C7.88747 26.9809 7.50454 26.5245 7.49879 25.8438C7.48727 24.5035 8.60725 23.5326 9.6898 22.5934C10.8213 21.6146 11.9902 20.5989 11.9902 19.1373C11.9902 18.2139 11.6246 17.6308 10.9365 17.4487C10.2253 17.2614 9.28673 17.5543 8.8347 17.9606C8.82894 17.9658 8.82031 17.9738 8.81455 17.979C8.79152 18.0001 8.77136 18.0186 8.75409 18.0397C8.74545 18.0476 8.73969 18.0556 8.73105 18.0635C8.70802 18.0899 8.68499 18.1189 8.66771 18.1453C8.10628 18.8734 7.98248 20.2875 6.81643 20.0395C7.94505 19.4407 7.21663 19.0317 8.5871 17.7944C8.60149 17.7785 8.61877 17.7653 8.63604 17.7495C8.64468 17.7416 8.65332 17.7337 8.66483 17.7231C9.20323 17.2693 10.2023 16.9607 11.0228 17.177C12.1313 17.4699 12.2954 18.5278 12.2954 19.1346C12.2954 20.7176 11.0775 21.7729 9.89998 22.7939C8.81743 23.7331 7.79246 24.6196 7.80397 25.8385C7.80973 26.3952 8.10052 26.7461 8.66771 26.8833C9.00169 26.0759 9.81936 25.5879 10.8127 24.9995C11.0488 24.8597 11.2906 24.7146 11.544 24.5589C12.6956 23.8413 13.2686 22.8414 13.4759 22.4087C13.1419 21.0553 13.2801 19.8285 13.83 18.8418C14.3338 17.9368 13.8674 16.7311 14.3022 15.7893C14.0805 15.8104 13.6198 15.7734 13.5536 15.1271C13.4701 14.2775 14.4922 14.1957 14.8694 14.1034C14.9788 13.9926 15.2033 13.8185 15.5085 13.6232L15.1717 13.0428C14.8406 12.6339 14.3569 12.8317 14.0143 12.283C13.5248 11.4968 14.5123 11.0878 14.9269 10.9533C15.1832 10.7211 15.5719 10.5496 15.8137 10.4573C15.6784 10.3992 15.5719 10.2832 15.5488 10.1301C15.52 9.96129 15.6093 9.78716 15.7705 9.70009C16.0325 9.56027 16.355 9.67635 16.45 9.92435C16.4932 10.0378 16.4817 10.1565 16.427 10.2568C16.6803 10.1882 17.0978 10.0985 17.4577 10.1301C17.8723 9.99295 18.9203 9.74495 19.0758 10.6367C19.1852 11.2593 18.6727 11.386 18.6957 11.8925L18.785 12.3305C18.9894 12.3094 19.1909 12.3041 19.3838 12.3173C19.5393 12.3278 19.666 12.3542 19.905 12.4334C20.1353 12.5099 20.4491 12.2988 20.7313 12.1906C21.0134 12.0851 21.1833 12.0719 21.3157 12.6576C21.451 13.246 20.9933 13.6575 20.9933 13.6575L21.4136 14.1614C21.8369 14.668 22.6372 15.0769 22.9223 15.9053C23.1065 16.4409 23.2966 17.1163 23.3167 17.6941H23.7803C23.6968 17.6097 23.6507 17.5121 23.6507 17.4065V17.235V16.8868C23.6507 16.3037 24.1661 15.8288 24.7995 15.8288H25.5221C26.1555 15.8288 26.6709 16.3037 26.6709 16.8868V17.2324V17.4065C26.6709 17.5121 26.6248 17.6097 26.5413 17.6941H36.7738C36.6903 17.6097 36.6442 17.5121 36.6442 17.4065V17.235V16.8868C36.6442 16.3037 37.1596 15.8288 37.793 15.8288H38.5156C39.1491 15.8288 39.6644 16.3037 39.6644 16.8868V17.2324V17.4065C39.6644 17.5121 39.6184 17.6097 39.5349 17.6941H40.5454V19.8733C40.9111 19.963 41.9533 20.0422 42.581 19.9287C42.9178 19.2639 43.2576 18.7547 43.2576 18.7547C43.2576 18.7547 42.0973 18.6413 42.27 17.3828C42.103 17.2139 42.129 16.8525 42.1664 16.4515C42.2326 15.7893 42.0483 15.66 42.0512 15.3065C42.0599 14.9899 42.1232 14.7709 42.414 14.4648C42.4629 14.3171 42.5551 14.0585 42.6933 13.8158C42.7998 13.6232 43.0071 13.4201 43.1827 13.2671V13.2644C43.1827 13.2644 42.9409 12.7869 43.2576 12.3305C43.5714 11.8767 43.7096 11.94 43.9111 12.1089C44.0666 12.2408 44.3085 12.4334 44.4927 12.5151L44.6223 11.8846C44.6453 11.3754 44.1328 11.2488 44.2422 10.6288C44.4006 9.73703 45.4457 9.98503 45.8603 10.1222C46.2202 10.0906 46.6377 10.1803 46.891 10.2489C46.8363 10.1486 46.8248 10.0299 46.868 9.91643C46.963 9.6658 47.2855 9.54971 47.5475 9.69218C47.7087 9.77924 47.798 9.95073 47.7692 10.1222C47.7433 10.2752 47.6367 10.3913 47.5043 10.4494C47.7461 10.5417 48.1348 10.7132 48.3911 10.9454C48.8085 11.0773 49.7932 11.4889 49.3037 12.2751C48.964 12.8212 48.4774 12.626 48.1463 13.0349L47.9909 13.304C48.4055 13.3673 49.4592 13.5757 49.3469 14.296C49.2663 14.821 48.6732 14.7366 48.3795 14.9213C48.3306 15.7682 48.1838 16.0425 48.0168 16.462C47.8412 16.9026 47.3719 17.272 47.1041 17.5727C46.845 17.8656 46.7845 18.1453 46.7384 18.4223C46.6434 19.1056 47.4381 19.6966 47.9563 20.1161C49.0043 20.9656 49.4707 22.1924 49.9516 22.9865C50.3402 23.4746 50.9189 24.0656 51.7712 24.551C51.9065 24.6275 52.0389 24.7014 52.1685 24.7753C53.3806 25.4559 54.3048 25.9783 54.6589 26.878C55.2261 26.7408 55.514 26.3925 55.5198 25.8359C55.5313 24.617 54.5092 23.7305 53.4238 22.7913C52.2462 21.7703 51.0283 20.7149 51.0283 19.132C51.0283 18.5278 51.1925 17.4672 52.3009 17.1744C53.1215 16.958 54.1177 17.2667 54.656 17.7205C54.6676 17.7284 54.6762 17.7363 54.6877 17.7469C54.705 17.7627 54.7223 17.7759 54.7367 17.7917C56.11 19.0291 55.3816 19.438 56.5102 20.0369C55.3413 20.2849 55.2204 18.8708 54.6589 18.1426C54.6388 18.1162 54.6157 18.0898 54.5927 18.0608C54.5841 18.0529 54.5783 18.045 54.5697 18.0371C54.5495 18.016 54.5294 17.9949 54.5092 17.9764C54.5035 17.9711 54.4948 17.9632 54.4891 17.9579C54.0342 17.5516 53.0984 17.2562 52.3873 17.4461C51.6963 17.6281 51.3335 18.2138 51.3335 19.1346C51.3335 20.5989 52.5025 21.612 53.634 22.5908C54.7165 23.53 55.8365 24.5009 55.825 25.8411C55.8192 26.5192 55.4363 26.9756 54.7482 27.1471C54.7712 27.2342 54.7885 27.3212 54.8 27.4162C54.8144 27.5244 54.823 27.6299 54.8288 27.7354C55.0015 27.6721 55.2866 27.5481 55.5659 27.3529C56.1503 26.9439 56.4469 26.4216 56.4469 25.7989C56.4469 24.4085 55.1455 23.2899 53.8873 22.2056C52.704 21.1872 51.5869 20.2269 51.5869 19.0871C51.5869 18.2244 51.9669 17.8867 52.2865 17.7548C52.4737 17.6756 52.6925 17.6545 52.9171 17.6809C55.5399 17.7601 54.3681 20.7123 56.8413 20.4353C54.4948 21.4589 53.9305 20.0554 53.8182 19.5831C53.6944 19.0581 53.4468 18.3748 53.2136 18.169C53.0409 18.016 52.8624 17.9632 52.7299 17.9474C52.6176 17.9474 52.5082 17.9685 52.4132 18.0081C52.0735 18.1505 51.8921 18.5225 51.8921 19.0871L51.8806 19.0792ZM47.582 12.494C47.6108 12.5099 47.6396 12.5283 47.6655 12.5442C47.7548 12.5996 47.8555 12.6629 47.9131 12.713C48.0484 12.7157 48.2154 12.6312 48.3911 12.5626C48.6243 12.4386 48.846 12.3542 48.9496 12.064C49.0821 11.6894 48.8229 11.4229 48.6214 11.2804C48.6387 11.3358 48.6473 11.3912 48.6444 11.4493C48.607 12.0877 47.9131 12.1115 47.582 12.494ZM46.7212 12.1062C46.9544 12.188 47.1703 12.2803 47.3632 12.3753C47.4266 12.2671 47.6137 11.969 47.8239 11.7791C48.1175 11.5179 48.2932 11.32 47.8325 10.9717C47.6137 10.8055 47.4813 10.7053 47.2941 10.5971C47.2999 10.7871 47.2941 11.0615 47.2279 11.2778C47.1559 11.51 46.8997 11.8714 46.7212 12.1036V12.1062ZM45.7135 11.0957C45.7451 11.3358 45.7192 11.6656 45.702 11.8318C45.9035 11.8661 46.1194 11.9189 46.3411 11.9822C46.3555 11.7369 46.3987 11.3728 46.5225 11.0483C46.6031 10.8372 46.7903 10.6209 46.9285 10.4784C46.7125 10.4546 46.5398 10.4573 46.2605 10.4599C45.6616 10.4678 45.6674 10.7211 45.7135 11.0931V11.0957ZM44.7374 11.378C44.8267 11.5337 44.8987 11.6946 45.0081 11.7712C45.0887 11.7659 45.2096 11.7764 45.3162 11.7843C45.3593 11.787 45.4025 11.7923 45.4486 11.7975C45.4083 11.3306 44.916 10.8662 45.3046 10.3702C45.3421 10.3227 45.3853 10.2832 45.4371 10.2515C45.1808 10.2462 44.7979 10.3043 44.6453 10.671C44.5273 10.9533 44.6453 11.1485 44.7403 11.3807L44.7374 11.378ZM43.8248 12.8317C43.8766 12.8186 44.0954 12.6523 44.343 12.618C44.0896 12.4888 43.868 12.3278 43.7528 12.13C43.6923 12.4096 43.413 12.7288 43.8219 12.8317H43.8248ZM43.3641 17.4962C43.3641 17.4962 43.5369 17.2693 43.4246 16.987C43.3094 16.7127 43.1194 16.5834 43.128 16.4251C43.1395 16.2694 43.3353 16.1665 43.5369 15.9766C43.7413 15.7893 43.9284 15.3962 43.8276 15.2115C43.7326 15.0215 43.5916 14.8764 43.3497 14.8025C43.1107 14.7287 43.0445 14.6152 43.151 14.4543C43.2547 14.2881 43.5311 14.3065 43.7182 14.4675C43.8996 14.6311 44.1875 14.9925 44.0896 15.4225C43.9889 15.8552 43.6952 16.1639 43.5282 16.3512C43.3555 16.5359 43.58 16.7839 43.963 16.863C44.3459 16.9475 44.5849 16.9184 44.628 16.871C44.6712 16.8235 44.6655 16.5227 44.7259 16.1797C44.7893 15.8394 45.3593 15.4859 45.82 15.4964C46.2835 15.5017 46.5628 15.5993 46.462 15.9027C46.2 16.2932 45.6732 15.8315 45.6732 15.8315C45.6732 15.8315 45.224 16.0425 45.0657 16.375C44.9131 16.7127 44.9649 17.053 44.7403 17.111C44.5215 17.1664 44.0119 17.0161 43.8795 17.1744C43.7384 17.3327 43.6952 17.5675 43.6952 17.5675C43.6952 17.5675 44.4092 18.5357 45.1319 18.1611C45.4284 18.0081 45.8344 17.4065 46.3152 17.1928C46.845 16.958 47.4611 16.6414 47.4611 15.9423C47.4611 15.9106 47.4496 15.6573 47.4496 15.5676C47.415 15.0585 47.5734 14.9476 47.6425 14.8632C47.8498 14.6126 47.9477 14.5519 47.939 14.1377C48.322 13.9794 48.892 13.8079 49.2059 14.2854C49.416 13.5362 48.0283 13.4359 47.7548 13.4597C47.6051 13.4808 47.6828 13.6417 47.6166 13.6391C47.5532 13.6364 47.4467 13.5362 47.3229 13.4385C47.2596 13.3884 46.6521 13.0402 46.1597 12.9162C45.4803 12.7473 44.6943 12.7341 44.5071 12.75C44.32 12.7658 44.0349 12.837 43.8622 12.9768C43.7154 13.0956 43.5512 13.2222 43.3756 13.3488C43.2 13.4755 42.9927 13.6734 42.8631 13.9055C42.8142 13.99 42.771 14.0797 42.7365 14.1641C43.0445 13.9134 43.272 13.8237 43.4159 13.8132C43.4649 13.8132 43.5599 13.866 43.5599 13.866C43.5599 13.866 42.8746 14.1667 42.6558 14.5519C42.4313 14.9345 42.5551 15.4832 42.627 15.8209C42.7019 16.1613 42.6098 16.4515 42.4946 16.6705C42.3766 16.8894 42.2556 17.1612 42.5032 17.4039C42.748 17.6466 43.367 17.4962 43.367 17.4962H43.3641ZM40.5339 22.7042L41.8036 23.092C41.8036 23.092 41.8209 21.5909 42.3852 20.3482C41.5071 20.4406 40.5368 20.2849 40.5368 20.2849V22.7016L40.5339 22.7042ZM41.7921 23.4799C41.4552 23.377 40.5512 23.1131 40.531 23.1052V25.5588C40.7815 25.3029 41.4322 24.6908 41.9073 24.1896C41.8151 23.7885 41.7892 23.4799 41.7892 23.4799H41.7921ZM36.935 16.8947C36.935 17.3327 37.1365 17.3986 37.1538 17.33C37.2028 17.1559 37.2949 17.0213 37.4072 16.9712C37.4072 16.9712 37.3755 17.2113 37.4302 17.3564C37.4705 17.4646 37.5108 17.5411 37.7843 17.5411C37.9945 17.5411 38.0636 17.2166 38.1126 16.995C38.1183 16.9633 38.1414 16.9659 38.1471 16.9976C38.1961 17.2166 38.3026 17.5253 38.5041 17.5411C38.7057 17.5569 38.7863 17.4672 38.8266 17.3564C38.8813 17.2113 38.8496 16.9712 38.8496 16.9712C38.9533 17.0187 39.0397 17.1374 39.0915 17.2931C39.1375 17.4276 39.3535 17.3327 39.3535 16.8973C39.3535 16.462 38.9734 16.1164 38.5041 16.1164H37.7815C37.3151 16.1164 36.9321 16.462 36.9321 16.8973L36.935 16.8947ZM23.9444 16.8947C23.9444 17.3327 24.1459 17.3986 24.1632 17.33C24.2121 17.1559 24.3043 17.0213 24.4166 16.9712C24.4166 16.9712 24.3849 17.2113 24.4396 17.3564C24.4799 17.4646 24.5202 17.5411 24.7937 17.5411C25.0039 17.5411 25.073 17.2166 25.1219 16.995C25.1277 16.9633 25.1507 16.9659 25.1565 16.9976C25.2054 17.2166 25.312 17.5253 25.5135 17.5411C25.715 17.5569 25.7957 17.4672 25.836 17.3564C25.8907 17.2113 25.859 16.9712 25.859 16.9712C25.9626 17.0187 26.049 17.1374 26.1008 17.2931C26.1469 17.4276 26.3628 17.3327 26.3628 16.8973C26.3628 16.462 25.9828 16.1164 25.5135 16.1164H24.7908C24.3244 16.1164 23.9415 16.462 23.9415 16.8973L23.9444 16.8947ZM20.0489 12.5653C20.2908 12.6919 20.4491 12.9425 20.4981 12.9742C20.9674 13.0138 20.8148 12.5837 20.8695 12.2698C20.6679 12.4334 20.3656 12.5204 20.0489 12.5653ZM17.8521 11.8107C17.8982 11.8054 17.9414 11.8028 17.9846 11.7975C18.0911 11.7896 18.212 11.7791 18.2926 11.7843C18.402 11.7078 18.474 11.5469 18.5633 11.3912C18.6612 11.1617 18.7735 10.9665 18.6583 10.6815C18.5057 10.3122 18.1228 10.2541 17.8665 10.262C17.9184 10.2937 17.9615 10.3333 17.999 10.3808C18.3877 10.8768 17.8953 11.3411 17.855 11.8081L17.8521 11.8107ZM16.3723 10.4969C16.5105 10.6393 16.6976 10.8557 16.7782 11.0667C16.902 11.3886 16.9452 11.7553 16.9596 12.0007C17.1813 11.9374 17.3972 11.8846 17.5988 11.8503C17.5815 11.6841 17.5556 11.3543 17.5873 11.1142C17.6362 10.7422 17.6391 10.4889 17.0402 10.481C16.7609 10.4784 16.5911 10.4758 16.3723 10.4995V10.4969ZM15.474 11.7975C15.6842 11.9875 15.8713 12.2856 15.9346 12.3938C16.1247 12.2988 16.3435 12.2065 16.5767 12.1247C16.3982 11.8899 16.1419 11.5311 16.07 11.2989C16.0037 11.0826 15.998 10.8082 16.0037 10.6182C15.8166 10.7264 15.6842 10.8266 15.4653 10.9929C15.0047 11.3437 15.1803 11.539 15.474 11.8002V11.7975ZM15.6323 12.5626C15.6582 12.5468 15.687 12.5283 15.7158 12.5125C15.3876 12.1326 14.6909 12.1062 14.6534 11.4677C14.6505 11.4097 14.6592 11.3543 14.6765 11.2989C14.472 11.4414 14.2129 11.7078 14.3482 12.0825C14.4519 12.37 14.6736 12.4571 14.9068 12.5811C15.0824 12.6497 15.2494 12.7341 15.3847 12.7315C15.4423 12.6814 15.5431 12.6207 15.6323 12.5626ZM15.258 14.0665C15.4711 14.0348 15.8454 14.143 15.3156 14.7788C14.8377 15.3513 14.4404 15.9739 14.5411 16.9158C14.639 17.8603 15.0392 18.3194 14.6765 19.2401C14.3137 20.1609 14.8636 21.2848 14.8636 21.2848C14.8636 21.2848 15.1054 20.7361 15.2724 20.2031C15.664 21.6463 16.5162 22.3718 16.5162 22.3718C16.5162 22.3718 16.2974 21.6858 16.7235 20.2744C17.0201 22.3876 19.6055 22.2029 21.094 23.3216C21.7562 23.8176 22.3551 24.5035 22.7495 24.9969V17.7073H22.9885C22.9511 17.4487 22.8733 16.987 22.7236 16.499C22.5019 15.7787 22.1478 15.0505 21.405 14.3461C20.665 13.6364 20.6247 13.5151 20.3944 13.1193C20.1641 12.7209 19.7725 12.5257 19.2687 12.494C18.7648 12.4624 17.1295 12.6893 15.2552 14.0691L15.258 14.0665ZM14.9356 14.9608C15.0306 14.8527 15.3847 14.478 15.3617 14.2775C15.1976 14.23 13.4816 14.2617 13.6889 15.135C14.092 14.5704 14.8089 14.9529 14.9356 14.9608ZM13.9596 29.7511C16.3665 30.6587 15.8339 33.1545 15.8108 33.508C15.7619 34.3074 16.5306 34.4156 17.1727 35.0171C18.0278 35.8218 18.8138 36.6555 18.9059 36.6845C19.1593 36.7241 21.1574 36.9378 21.2812 36.8613C20.7082 35.7347 18.0105 34.8087 17.4404 33.7824C17.0316 33.0489 17.0229 32.3049 17.1151 31.7351C17.213 31.1678 17.8262 28.0599 13.9567 29.7511H13.9596ZM19.9337 27.1761C19.666 27.0521 19.4673 26.9993 19.4673 26.9993C16.2629 28.461 14.901 27.5534 13.4125 29.6033C13.4615 29.6113 13.519 29.6218 13.5795 29.635C13.7465 29.4846 14.0978 29.2155 14.6765 28.9622C15.5431 28.5797 16.4068 28.4478 17.5124 28.1496C18.5374 27.8779 19.4817 27.4479 19.9309 27.1761H19.9337ZM40.0646 31.4026C39.984 31.4132 39.9005 31.4211 39.8199 31.4238V34.1966H36.9983L36.9868 34.1623L36.9696 34.1043L36.9494 34.0357L36.9321 33.975L36.912 33.9117L36.8918 33.8457L36.8717 33.785L36.8515 33.7217L36.8314 33.6584L36.8112 33.5951L36.7911 33.5291L36.7709 33.4658L36.7651 33.4447H33.7939L33.7852 33.4658L33.7651 33.5291L33.7421 33.5951L33.719 33.6584L33.6989 33.7217L33.6758 33.785L33.6557 33.8483L33.6326 33.9143L33.6096 33.9776L33.5895 34.0383L33.5664 34.1069L33.5463 34.1649L33.5348 34.1992H30.0049V34.1649L29.9934 34.1069L29.9848 34.0383L29.9762 33.9776L29.9675 33.9143L29.9589 33.8483L29.9502 33.7877L29.9416 33.7243L29.933 33.661L29.9243 33.5977L29.9157 33.5317L29.9071 33.4684L29.8984 33.4025L29.8898 33.3392L29.8811 33.2758L29.8725 33.2125L29.8639 33.1466L29.8552 33.0859L29.8523 33.0542H26.8897V33.0859H26.8868L26.8782 33.1466L26.8696 33.2125L26.8609 33.2758L26.8523 33.3392L26.8437 33.4025L26.835 33.4684L26.8264 33.5317L26.8177 33.5977L26.8091 33.661L26.8005 33.7243L26.7918 33.7877L26.7832 33.851L26.7746 33.9169L26.7659 33.9803L26.7573 34.0409L26.7486 34.1095L26.74 34.1676C26.7285 34.1465 26.717 34.128 26.7026 34.1095C26.6882 34.0858 26.6709 34.062 26.6536 34.0409C26.6364 34.0198 26.622 33.9987 26.6047 33.9803C26.5845 33.9565 26.5586 33.9354 26.5356 33.9169C26.5097 33.8932 26.478 33.8721 26.4492 33.851C26.4147 33.8272 26.3801 33.8088 26.3427 33.7903C26.2909 33.7639 26.2362 33.7428 26.1815 33.727C26.1008 33.7032 26.0116 33.6927 25.9223 33.6927C25.8331 33.6927 25.7467 33.7059 25.6632 33.727C25.6056 33.7428 25.5509 33.7639 25.4962 33.7903C25.4588 33.8088 25.4242 33.8299 25.3897 33.851C25.358 33.8721 25.3292 33.8932 25.3033 33.9169C25.2803 33.938 25.2573 33.9591 25.2371 33.9803C25.2198 33.9987 25.2026 34.0198 25.1882 34.0409C25.1709 34.062 25.1536 34.0858 25.1392 34.1095C25.1277 34.128 25.1162 34.1491 25.1075 34.1676C25.1018 34.1781 25.0931 34.1913 25.0874 34.2019H23.4578V33.9803V33.7877V33.661V33.0885V32.8959V32.8352V32.5186V32.4553V32.392V31.6955V31.6322V31.5689V31.4475C23.3743 31.4449 23.2937 31.4369 23.2131 31.4264V33.4816V35.9827C23.2131 37.1699 24.0279 37.7504 25.2083 37.7504H38.055C39.2354 37.7504 40.0502 37.1699 40.0502 35.9827V32.8933V31.4132L40.0646 31.4026ZM27.6095 31.5583L27.6066 31.6216L27.6037 31.6849L27.6009 31.7483V31.8116L27.5951 31.8749V31.9382L27.5865 32.0042V32.0675L27.5807 32.1282L29.2045 32.1308L29.2017 32.0675V32.0042L29.1959 31.9382V31.8749L29.1901 31.8116V31.7483L29.1844 31.6849L29.1815 31.6216L29.1786 31.5583L29.1758 31.4923V31.429L29.17 31.3684V31.3024L29.1642 31.2417V31.1784L29.1585 31.1124L29.1556 31.0491V30.9884L29.1498 30.9225V30.8592L29.1441 30.7932V30.7325L29.1383 30.6692V30.6059L29.1326 30.5452L29.1297 30.4819V30.4159H29.1268V30.3552L29.121 30.2919V30.2286H29.1182L27.6988 30.226V30.2312V30.2946L27.6901 30.3579V30.4186H27.6872V30.4845H27.6844V30.5478H27.6815V30.6085L27.6757 30.6718V30.7352L27.67 30.7958V30.8618L27.6613 30.9251V30.9911L27.6556 31.0518V31.1151H27.6527V31.181L27.6441 31.2444V31.305L27.6354 31.371V31.4317L27.6297 31.495V31.5609L27.6095 31.5583ZM29.1556 30.1152V30.0967V29.7168V29.6376H27.6095V29.7168V30.0967V30.1152H29.1556ZM27.3849 32.2918L27.3792 32.3234L27.3705 32.3841L27.359 32.4474L27.3475 32.5107L27.3389 32.5741L27.3274 32.6374L27.3158 32.7007L27.3043 32.7666L27.2957 32.83L27.287 32.8906L27.2813 32.9276H29.4809V32.8906H29.4752L29.4665 32.83L29.4579 32.7666L29.4493 32.7007L29.4406 32.6374L29.432 32.5741L29.4234 32.5134L29.4147 32.4501L29.4061 32.3867L29.4003 32.3261V32.2944H27.3734L27.3849 32.2918ZM33.6902 33.0146V33.0806V33.318H36.8976V33.0806V33.012H33.6902V33.0146ZM36.6701 32.8748V32.83V32.5134V32.4501V32.3867V32.2944H33.9407V32.3867V32.4501V32.5134V32.8326V32.8775H36.6701V32.8748ZM49.3325 29.7353C45.463 28.0441 46.0762 31.1547 46.1741 31.7192C46.2663 32.2891 46.2576 33.0331 45.8488 33.7666C45.2787 34.7902 42.5781 35.7189 42.008 36.8454C42.1347 36.9219 44.1299 36.7082 44.3833 36.6687C44.4754 36.6396 45.2643 35.8059 46.1166 35.0013C46.7557 34.3997 47.5273 34.2916 47.4784 33.4922C47.4553 33.1386 46.9227 30.6428 49.3297 29.7353H49.3325ZM49.8796 29.5901C48.2701 27.8172 47.3143 27.8542 44.153 26.039C44.153 26.039 43.9342 26.1472 43.6059 26.3503C44.3891 27.0099 47.6425 27.7407 49.7126 29.6218C49.7759 29.6086 49.8306 29.5981 49.8796 29.5901ZM54.4171 30.4318C54.299 30.0598 54.3566 29.635 54.4228 29.1416C54.4891 28.6456 54.5639 28.0837 54.4804 27.4426C54.3365 26.3239 53.3518 25.7725 51.9929 25.0101C51.8633 24.9362 51.7309 24.8623 51.5955 24.7858C51.037 24.4692 49.9573 23.5353 49.8364 23.4297C49.1252 22.8018 48.892 21.5645 48.0197 20.7572C47.6799 20.4432 47.4525 20.2269 47.1185 19.8364C46.1338 18.8207 46.4246 18.016 46.6895 17.644C46.8507 17.4197 47.1818 17.1322 47.1415 17.0952C47.1214 17.0767 46.9429 17.235 46.7672 17.33C46.5801 17.4303 46.4333 17.4857 46.1597 17.7231C46.0503 17.8207 45.938 17.9157 45.8258 18.0107C45.3939 18.3748 44.5215 19.1373 43.4418 17.7785C43.4418 17.7785 43.0272 17.9025 42.6386 17.7442C42.748 18.607 43.4562 18.5146 44.2336 18.5779C44.0465 18.6439 43.8795 18.7204 43.6146 18.7521C43.4188 19.3668 41.9245 20.8205 42.2412 23.8149L42.532 23.4561C42.5004 21.3983 43.1683 20.2981 43.9025 19.3351C43.9198 19.3114 43.9601 19.3351 43.9486 19.3615C43.2777 20.6516 42.9754 21.5328 43.1453 22.6224C43.891 21.3455 44.2451 21.0896 44.7087 20.9629C43.4274 21.9734 43.8967 22.7069 41.985 24.77C41.8094 24.96 41.0263 25.8016 40.747 26.1023C40.6721 26.1815 40.6001 26.2606 40.5282 26.3345C40.3381 26.5324 40.1683 26.7065 40.0589 26.8094V26.7382V26.0232V18.1083H23.2217V25.2343V25.3979V25.9757C23.2217 25.9757 23.2188 25.9757 23.216 25.9757V27.1286C23.216 27.1286 23.0403 26.8358 22.7467 26.411C22.6488 26.2685 22.5394 26.1129 22.4156 25.9467C21.7159 24.9916 20.6622 23.7331 19.666 23.2688C18.8656 22.8968 17.9385 22.8599 16.8761 21.8019C16.7869 22.2583 17.0402 23.0393 17.0402 23.0393C17.0402 23.0393 15.7648 22.7702 15.2408 21.3033C15.1083 21.7518 15.0076 22.3006 14.0488 22.7728C13.5565 23.4561 12.9576 23.8941 12.4854 24.2028C12.2551 24.4112 11.9931 24.617 11.6908 24.8043C11.4346 24.9626 11.1898 25.1077 10.9537 25.2502C9.78194 25.944 8.93259 26.4479 8.80015 27.4663C8.71666 28.1101 8.79152 28.672 8.85774 29.1654C8.92396 29.6561 8.98154 30.0835 8.86349 30.4555C8.73105 30.8776 8.16674 31.3472 7.71472 31.7272C7.49015 31.9145 7.27997 32.0912 7.1936 32.2047C7.07555 32.3577 7.11586 32.7719 7.18208 33.1967C7.31164 32.9645 7.53334 32.8115 7.71472 32.7192C7.81261 32.669 7.9249 32.764 7.87883 32.859C7.7176 33.1888 7.46136 33.8009 7.36923 34.5079C7.37498 34.6768 7.37498 34.8588 7.37498 35.0514C7.37498 35.5843 7.37498 36.1859 7.53334 36.4761C7.58516 36.5737 7.67153 36.6766 7.77518 36.7848C7.81837 36.827 7.86731 36.8665 7.92202 36.9035C8.08613 37.0196 8.3107 37.0829 8.54679 37.1647C8.63316 37.1884 8.73105 37.2253 8.8347 37.2755C8.86061 37.286 8.88653 37.2966 8.91244 37.3098C9.22626 37.4602 9.45371 37.5762 9.68692 37.6237C9.85679 37.6501 10.0209 37.6422 10.1706 37.5921C10.1879 37.5868 10.2023 37.5815 10.2167 37.5762C10.4384 37.4628 10.5276 37.2491 10.7292 37.2491C10.7551 37.2465 10.781 37.2465 10.8098 37.2491H10.8155C11.0488 37.2596 11.2474 37.3019 11.3482 37.1858C11.3827 37.1462 11.4086 37.104 11.4259 37.0591C11.4259 37.0486 11.4317 37.0328 11.4346 37.0222C11.4691 36.6951 11.2445 36.6608 10.6255 36.4708C10.0065 36.2835 8.80591 36.1938 8.67059 35.2308C8.54103 34.2652 8.38844 33.3655 9.3875 32.5239C10.3837 31.6797 11.901 31.8195 12.543 29.5453C13.1995 26.8701 14.6621 26.4559 14.6621 26.4559C14.6621 26.4559 13.7638 27.3107 13.5478 28.738C14.9413 27.4215 16.7264 27.651 18.4424 26.5878C16.5853 25.4902 18.0047 23.2319 18.0047 23.2319C18.0047 23.2319 18.4596 24.9388 19.7149 25.6116C20.3656 25.9599 20.9702 26.4374 21.4194 27.0416C21.6699 27.3766 21.8714 27.7486 22.0067 28.1602C22.2774 28.9913 22.3061 30.0017 22.738 30.5162C22.8589 30.6613 23.0144 30.7642 23.2131 30.8169C23.2879 30.8354 23.3685 30.8486 23.4578 30.8512C23.4636 30.8512 23.4664 30.8512 23.4693 30.8512C23.5211 30.8512 23.5758 30.8512 23.6305 30.8512C23.8321 30.846 24.1488 30.8328 24.2553 30.6375C24.3244 30.5083 24.264 30.3552 24.2179 30.2286C24.1632 30.0782 24.1142 29.9252 24.0595 29.7748C23.9041 29.3474 23.7371 28.424 23.7256 28.4082H23.8062H23.8522H24.1776H26.8494H28.2659V28.4135V28.4557V28.7485L28.2256 28.7723L28.1162 28.8356L28.0097 28.8963L27.8974 28.9622L27.788 29.0256L27.6786 29.0889L27.6009 29.1337H27.8456V29.511H28.9224V29.1337H29.147L29.0721 29.0889L28.9656 29.0256L28.859 28.9622L28.7496 28.8963L28.646 28.8356L28.5395 28.7723L28.4905 28.7433V28.4056H32.3917H39.2124H39.2988H39.5147C39.4974 28.4478 39.2412 29.6508 39.2095 29.759C39.1635 29.912 39.1059 30.0624 39.0512 30.2128C39.0051 30.3394 38.9418 30.4924 39.0137 30.6217C39.1203 30.8169 39.437 30.8301 39.6385 30.8354C39.6932 30.8354 39.745 30.8354 39.7997 30.8354C39.8026 30.8354 39.8055 30.8354 39.8113 30.8354C39.9005 30.8328 39.9811 30.8196 40.056 30.8011C40.2546 30.751 40.4072 30.6481 40.5282 30.5083C40.9658 29.9964 40.9917 28.9807 41.2652 28.147C41.4121 27.6932 41.6424 27.2869 41.9274 26.9281C42.3679 26.3714 42.9409 25.9282 43.5541 25.5984C44.8094 24.9257 46.9486 24.1711 47.3143 21.8916C47.4957 23.4456 46.5715 24.675 44.9419 25.6908C46.1684 26.7355 48.0657 27.0732 49.7615 28.9174C49.5686 27.4162 48.607 26.4427 48.607 26.4427C48.607 26.4427 50.0725 26.8569 50.726 29.5321C51.3681 31.8037 52.8854 31.6665 53.8816 32.5107C54.8806 33.355 54.728 34.252 54.5985 35.2176C54.4631 36.1806 53.2626 36.2703 52.6435 36.4576C52.0245 36.6476 51.8 36.6819 51.8345 37.009C51.8345 37.0196 51.8403 37.0354 51.8431 37.0459C51.8604 37.0908 51.8863 37.133 51.9209 37.1726C52.0216 37.2887 52.2203 37.2465 52.4535 37.2359H52.4593C52.4881 37.2306 52.514 37.2306 52.537 37.2359C52.7414 37.2359 52.8278 37.4496 53.0524 37.5631C53.0668 37.5683 53.0812 37.5736 53.0984 37.5789C53.2482 37.6316 53.4123 37.6396 53.5821 37.6105C53.8153 37.5657 54.0428 37.4496 54.3566 37.2966C54.3825 37.2834 54.4084 37.2728 54.4344 37.2623C54.538 37.2122 54.6359 37.1779 54.7223 37.1515C54.9584 37.0697 55.1829 37.0064 55.347 36.8903C55.4017 36.8534 55.4507 36.8138 55.4939 36.7716C55.6004 36.6634 55.6839 36.5579 55.7386 36.4629C55.897 36.1727 55.897 35.5711 55.897 35.0382C55.897 34.8456 55.897 34.6636 55.9056 34.4947C55.8163 33.7877 55.5572 33.1729 55.396 32.8458C55.3499 32.7508 55.4622 32.6558 55.5601 32.706C55.7444 32.7983 55.9632 32.9513 56.0927 33.1835C56.159 32.7614 56.1993 32.3445 56.0812 32.1915C55.9948 32.0781 55.7818 31.9013 55.5601 31.714C55.1081 31.3341 54.5438 30.8644 54.4113 30.4423L54.4171 30.4318Z" fill="white"/>
</svg>
