<svg width="20" height="18" viewBox="0 0 20 18" fill="none" xmlns="http://www.w3.org/2000/svg">
<path d="M8.1141 1.49112C8.1902 0.69599 9.0203 0.0417205 9.8571 0.51856C11.597 1.53773 13.2394 2.69825 14.8271 3.94049C16.7862 5.48751 18.3603 6.94706 19.4737 8.1124C19.9575 8.6189 19.9118 9.42 19.4496 9.9037C18.3535 11.0504 17.1732 12.1172 15.9553 13.1321C14.0168 14.7188 12.0104 16.257 9.8253 17.4902C9.08378 17.9084 8.28121 17.4301 8.13795 16.689L8.1215 16.576L7.894 13.002C6.07832 13.0402 4.31999 13.6644 2.91368 14.8247L2.64911 15.0473C2.60595 15.0827 2.56327 15.1173 2.52106 15.1511L2.27354 15.3432C2.23325 15.3735 2.19344 15.4028 2.15412 15.4312L1.92411 15.5904C1.84941 15.6396 1.7767 15.6849 1.70601 15.7261L1.50004 15.8374C0.534113 16.314 0 15.8923 0 14C0 9.59586 3.24521 5.67742 7.63167 5.08307L7.891 5.05196L8.1141 1.49112ZM10.0229 2.96524L9.8314 6.43709C9.8178 6.68226 9.6283 6.88133 9.3841 6.90684L8.0227 7.0491C4.95767 7.4148 2.52633 9.8111 2.0752 12.9432C3.56496 11.8456 5.33483 11.1777 7.21039 11.0308L7.60656 11.0076L9.311 10.9716C9.5806 10.966 9.8061 11.175 9.8208 11.4442L10.0177 15.0397C11.6209 14.0186 13.1491 12.8442 14.6817 11.5901C15.6714 10.765 16.6261 9.9036 17.5391 8.9946L17.2812 8.7394L16.7253 8.20592C15.8517 7.38394 14.8006 6.46812 13.5911 5.51285C12.4254 4.60097 11.2427 3.74514 10.0229 2.96524Z" fill="#2E4049"/>
</svg>
